#N canvas 100 47 722 801 10;
#X obj 65 93 unpack f;
#X obj 69 681 dac~;
#X obj 70 438 osc~;
#X floatatom 70 407 5 0 0 0 - - -;
#X obj 70 624 *~;
#X obj 70 369 mtof;
#X floatatom 68 276 5 0 127 2 pitch - -;
#X floatatom 119 477 5 0 0 0 - - -;
#X msg 196 448 0;
#X floatatom 146 273 5 0 127 1 velocity - -;
#X floatatom 239 271 5 0 5000 2 duration - -;
#X obj 69 325 t f b b;
#X obj 195 369 del 1000;
#X obj 119 368 f 127;
#X obj 119 407 expr $f1/127;
#X obj 119 507 sel 0;
#X obj 119 567 bng 15 250 50 0 empty empty empty 17 7 0 10 -262144
-1 -1;
#X obj 132 680 line~;
#X text 319 500 fadeIn/Out module;
#X obj 200 709 tgl 15 0 empty empty empty 17 7 0 10 -262144 -1 -1 0
1;
#X obj 232 723 metro 10;
#X obj 188 746 snapshot~;
#X floatatom 188 774 5 0 0 0 - - -;
#X floatatom 350 525 5 0 0 0 - - -;
#X floatatom 413 276 5 0 3000 1 attack - -;
#X obj 350 619 pack f 400;
#X obj 272 600 pack 0 800;
#X floatatom 328 272 5 0 5000 2 release - -;
#X obj 496 653 * 0.01;
#X floatatom 503 279 5 0 100 2 sustain(level) - -;
#X floatatom 564 319 5 0 4000 2 decay(time) - -;
#X msg 379 255 300;
#X msg 294 254 100;
#X msg 413 232 500;
#X msg 592 262 100;
#X msg 643 302 400;
#X obj 496 626 f 1;
#X obj 475 678 *;
#X obj 350 551 t f b f;
#X obj 432 604 del 50;
#X obj 452 707 pack f 100;
#X obj 119 538 t b b;
#X msg 183 559 stop;
#X text 60 -5 receive OSC message;
#X text 127 356 comment;
#X obj 65 16 dumpOSC 10001;
#X obj 65 40 OSCroute /p5;
#X obj 65 66 OSCroute /soundValue;
#X obj 39 169 t b f;
#X obj 62 216 bng 15 250 50 0 empty empty empty 17 7 0 10 -262144 -1
-1;
#X msg 82 232 96;
#X connect 0 0 48 0;
#X connect 2 0 4 0;
#X connect 3 0 2 0;
#X connect 4 0 1 0;
#X connect 4 0 1 1;
#X connect 5 0 3 0;
#X connect 6 0 11 0;
#X connect 7 0 15 0;
#X connect 8 0 7 0;
#X connect 9 0 13 1;
#X connect 10 0 12 1;
#X connect 11 0 5 0;
#X connect 11 1 13 0;
#X connect 11 2 12 0;
#X connect 12 0 8 0;
#X connect 13 0 14 0;
#X connect 14 0 7 0;
#X connect 15 0 41 0;
#X connect 15 1 23 0;
#X connect 16 0 26 0;
#X connect 17 0 4 1;
#X connect 17 0 21 0;
#X connect 19 0 20 0;
#X connect 20 0 21 0;
#X connect 21 0 22 0;
#X connect 23 0 38 0;
#X connect 24 0 25 1;
#X connect 24 0 39 1;
#X connect 25 0 17 0;
#X connect 26 0 17 0;
#X connect 27 0 26 1;
#X connect 28 0 37 0;
#X connect 29 0 36 1;
#X connect 30 0 40 1;
#X connect 31 0 27 0;
#X connect 32 0 10 0;
#X connect 33 0 24 0;
#X connect 34 0 29 0;
#X connect 35 0 30 0;
#X connect 36 0 28 0;
#X connect 37 0 40 0;
#X connect 38 0 25 0;
#X connect 38 1 39 0;
#X connect 38 2 37 1;
#X connect 39 0 36 0;
#X connect 40 0 17 0;
#X connect 41 0 16 0;
#X connect 41 1 42 0;
#X connect 42 0 39 0;
#X connect 45 0 46 0;
#X connect 46 0 47 0;
#X connect 47 0 0 0;
#X connect 48 0 49 0;
#X connect 48 1 9 0;
#X connect 49 0 6 0;
#X connect 50 0 6 0;
